<svg width="49" height="65" viewBox="0 0 49 65" fill="none" xmlns="http://www.w3.org/2000/svg">
<g clip-path="url(#clip0)">
<path d="M24.25 0C17.8207 0.00714647 11.6568 2.56434 7.11055 7.11055C2.56434 11.6568 0.00714647 17.8207 0 24.25C0 42.14 22.374 63.4 23.326 64.3C23.5761 64.5349 23.9064 64.6657 24.2495 64.6657C24.5926 64.6657 24.9229 64.5349 25.173 64.3C26.126 63.4 48.5 42.14 48.5 24.25C48.4929 17.8207 45.9357 11.6568 41.3895 7.11055C36.8432 2.56434 30.6793 0.00714647 24.25 0V0ZM24.25 61.434C20.016 57.207 2.694 39.006 2.694 24.25C2.67464 21.4069 3.21789 18.5881 4.29247 15.9559C5.36706 13.3237 6.95175 10.93 8.95528 8.91278C10.9588 6.89555 13.3416 5.2946 15.9665 4.20211C18.5913 3.10962 21.4064 2.54718 24.2495 2.54718C27.0926 2.54718 29.9077 3.10962 32.5325 4.20211C35.1574 5.2946 37.5402 6.89555 39.5437 8.91278C41.5473 10.93 43.1319 13.3237 44.2065 15.9559C45.2811 18.5881 45.8244 21.4069 45.805 24.25C45.806 39.006 28.484 57.207 24.25 61.434Z" fill="#5C6BC0"/>
<path d="M24.2501 10.778C21.5856 10.778 18.9809 11.5681 16.7654 13.0485C14.55 14.5288 12.8232 16.6328 11.8036 19.0945C10.7839 21.5562 10.5171 24.265 11.0369 26.8783C11.5568 29.4916 12.8398 31.8921 14.7239 33.7762C16.608 35.6603 19.0085 36.9433 21.6218 37.4632C24.2351 37.983 26.9439 37.7162 29.4056 36.6965C31.8673 35.6769 33.9713 33.9501 35.4516 31.7347C36.932 29.5192 37.7221 26.9145 37.7221 24.25C37.7178 20.6783 36.2971 17.2541 33.7715 14.7285C31.246 12.203 27.8218 10.7822 24.2501 10.778ZM24.2501 35.028C22.1184 35.028 20.0346 34.3959 18.2621 33.2116C16.4897 32.0273 15.1083 30.344 14.2925 28.3746C13.4768 26.4052 13.2633 24.2381 13.6792 22.1473C14.0951 20.0566 15.1216 18.1361 16.6289 16.6288C18.1362 15.1215 20.0567 14.095 22.1474 13.6791C24.2381 13.2632 26.4052 13.4767 28.3747 14.2924C30.3441 15.1082 32.0274 16.4896 33.2117 18.2621C34.396 20.0345 35.0281 22.1183 35.0281 24.25C35.0252 27.1076 33.8887 29.8474 31.8681 31.868C29.8474 33.8886 27.1077 35.0251 24.2501 35.028V35.028Z" fill="#5C6BC0"/>
</g>
<defs>
<clipPath id="clip0">
<rect width="48.5" height="64.667" fill="white"/>
</clipPath>
</defs>
</svg>
