<svg width="66" height="60" viewBox="0 0 66 60" fill="none" xmlns="http://www.w3.org/2000/svg">
<g clip-path="url(#clip0)">
<path d="M52.6269 27.163C51.8102 25.6198 50.4292 24.4515 48.7719 23.902L45.0579 22.665C44.4948 22.4771 43.9794 22.1687 43.5477 21.7613C43.1159 21.3539 42.7782 20.8572 42.5579 20.306L42.0179 18.954C41.814 18.4372 41.5049 17.9684 41.1101 17.5775C40.7154 17.1865 40.2436 16.8819 39.7249 16.683C39.1876 16.4763 38.6134 16.3829 38.0383 16.4085C37.4632 16.4341 36.8996 16.5783 36.3829 16.832C35.2393 17.4061 33.9775 17.7051 32.6979 17.7051C31.4183 17.7051 30.1564 17.4061 29.0129 16.832C28.4952 16.5811 27.9318 16.4386 27.3572 16.4132C26.7825 16.3877 26.2087 16.4799 25.6709 16.684C25.1518 16.8826 24.6798 17.1872 24.285 17.5784C23.8902 17.9696 23.5813 18.4388 23.3779 18.956L22.8379 20.305C22.6174 20.8563 22.2796 21.3529 21.8479 21.7604C21.4162 22.168 20.9009 22.4767 20.3379 22.665L16.6239 23.904C14.9672 24.4524 13.5862 25.6192 12.7689 27.161L3.53389 44.475C3.01028 45.4605 2.73564 46.5591 2.73389 47.675V54.486C2.73547 55.9307 3.31007 57.3157 4.33162 58.3373C5.35316 59.3588 6.73821 59.9334 8.18289 59.935H57.2139C58.6586 59.9334 60.0436 59.3588 61.0652 58.3373C62.0867 57.3157 62.6613 55.9307 62.6629 54.486V47.675C62.6617 46.5571 62.3871 45.4564 61.8629 44.469L52.6269 27.163ZM59.9379 54.49C59.9371 55.2122 59.6498 55.9046 59.1392 56.4153C58.6285 56.926 57.9361 57.2132 57.2139 57.214H8.17289C7.45068 57.2132 6.75828 56.926 6.2476 56.4153C5.73693 55.9046 5.44968 55.2122 5.44889 54.49V47.679C5.4504 47.008 5.61586 46.3475 5.93089 45.755L15.1659 28.44C15.6563 27.5158 16.4845 26.8165 17.4779 26.488L21.1909 25.25C22.1304 24.9384 22.9904 24.4252 23.7107 23.7464C24.431 23.0675 24.9942 22.2394 25.3609 21.32L25.9009 19.971C25.9669 19.8014 26.0677 19.6476 26.1969 19.5194C26.3261 19.3912 26.4808 19.2916 26.6509 19.227C26.8128 19.1639 26.9851 19.132 27.1589 19.133C27.3882 19.134 27.6144 19.1862 27.8209 19.286C29.3345 20.0387 31.002 20.4304 32.6924 20.4304C34.3828 20.4304 36.0503 20.0387 37.5639 19.286C37.7447 19.1968 37.9418 19.1454 38.1432 19.1351C38.3446 19.1248 38.5459 19.1557 38.7349 19.226C38.9048 19.2904 39.0594 19.3897 39.1885 19.5175C39.3177 19.6453 39.4187 19.7988 39.4849 19.968L40.0249 21.32C40.3913 22.2389 40.9539 23.0667 41.6735 23.7455C42.3931 24.4243 43.2522 24.9378 44.1909 25.25V25.25L47.9049 26.486C48.8988 26.8157 49.7271 27.5164 50.2169 28.442L59.4519 45.753C59.7663 46.346 59.9314 47.0068 59.9329 47.678L59.9379 54.49Z" fill="#5C6BC0"/>
<path d="M64.214 12.215C55.6438 4.28179 44.372 -0.0863981 32.694 1.41474e-05C21.0156 -0.0866531 9.74339 4.28156 1.17299 12.215C0.803077 12.5562 0.507854 12.9702 0.305929 13.4312C0.104004 13.8921 -0.000244141 14.3898 -0.000244141 14.893C-0.000244141 15.3962 0.104004 15.894 0.305929 16.3549C0.507854 16.8158 0.803077 17.2299 1.17299 17.571L7.45199 23.443C8.19942 24.1222 9.17308 24.4985 10.183 24.4985C11.1929 24.4985 12.1666 24.1222 12.914 23.443C15.0099 21.4806 17.401 19.8595 20 18.639C20.623 18.3698 21.1578 17.9311 21.5436 17.3727C21.9294 16.8144 22.1506 16.1589 22.182 15.481L23.116 9.22601C29.3589 7.31176 36.0321 7.31176 42.275 9.22601L43.19 15.282C43.1948 15.9912 43.4012 16.6844 43.7851 17.2807C44.169 17.877 44.7145 18.3519 45.358 18.65C47.961 19.8732 50.3567 21.4962 52.458 23.46C53.2052 24.1396 54.179 24.5162 55.189 24.5162C56.199 24.5162 57.1728 24.1396 57.92 23.46L64.22 17.572C64.5899 17.2309 64.8851 16.8168 65.087 16.3559C65.289 15.895 65.3932 15.3972 65.3932 14.894C65.3932 14.3908 65.289 13.8931 65.087 13.4322C64.8851 12.9712 64.5899 12.5572 64.22 12.216L64.214 12.215ZM62.351 15.581L56.051 21.469C55.8099 21.678 55.5015 21.793 55.1825 21.793C54.8634 21.793 54.5551 21.678 54.314 21.469C52.011 19.3151 49.3852 17.5345 46.532 16.192C46.3284 16.0897 46.1595 15.9296 46.0464 15.7319C45.9333 15.5341 45.881 15.3074 45.896 15.08L44.834 7.96301C44.7958 7.70862 44.6863 7.47027 44.5181 7.27558C44.35 7.08089 44.1301 6.93784 43.884 6.86301C40.2742 5.70493 36.5108 5.09646 32.72 5.05801C28.9113 5.09773 25.1298 5.70473 21.5 6.85901C21.2535 6.93352 21.0332 7.07643 20.8647 7.27115C20.6962 7.46586 20.5864 7.70438 20.548 7.95901L19.47 15.277C19.4626 15.4688 19.4003 15.6544 19.2903 15.8116C19.1804 15.9689 19.0275 16.0912 18.85 16.164C15.9898 17.5074 13.3579 19.2907 11.05 21.449C10.8086 21.6574 10.5004 21.7721 10.1815 21.7721C9.86261 21.7721 9.55435 21.6574 9.31299 21.449L3.03599 15.581C2.93821 15.4951 2.85987 15.3894 2.80621 15.2708C2.75254 15.1523 2.72478 15.0237 2.72478 14.8935C2.72478 14.7634 2.75254 14.6347 2.80621 14.5162C2.85987 14.3976 2.93821 14.2919 3.03599 14.206C11.1014 6.7453 21.7074 2.63957 32.694 2.72501C43.6804 2.6393 54.2864 6.74466 62.352 14.205C62.4498 14.2909 62.5281 14.3966 62.5818 14.5152C62.6354 14.6337 62.6632 14.7624 62.6632 14.8925C62.6632 15.0226 62.6354 15.1513 62.5818 15.2698C62.5281 15.3884 62.4498 15.4941 62.352 15.58L62.351 15.581Z" fill="#5C6BC0"/>
<path d="M32.6941 30.186C22.7651 30.186 14.9851 34.972 14.9851 41.086C14.9851 47.2 22.7651 51.986 32.6941 51.986C42.6231 51.986 50.4031 47.2 50.4031 41.086C50.4031 34.972 42.6241 30.186 32.6941 30.186ZM32.6941 49.257C24.5711 49.257 17.7091 45.514 17.7091 41.084C17.7091 36.654 24.5711 32.911 32.6941 32.911C40.8171 32.911 47.6791 36.655 47.6791 41.084C47.6791 45.513 40.8171 49.257 32.6941 49.257Z" fill="#5C6BC0"/>
<path d="M21.7961 39.04C20.2181 39.04 19.071 39.899 19.071 41.083C19.071 42.267 20.2181 43.126 21.7961 43.126C23.3741 43.126 24.5201 42.267 24.5201 41.083C24.5201 39.899 23.3731 39.04 21.7961 39.04Z" fill="#5C6BC0"/>
<path d="M28.6071 43.808C27.0291 43.808 25.8831 44.667 25.8831 45.851C25.8831 47.035 27.0301 47.894 28.6071 47.894C30.1841 47.894 31.3311 47.035 31.3311 45.851C31.3311 44.667 30.1851 43.808 28.6071 43.808Z" fill="#5C6BC0"/>
<path d="M36.7799 43.808C35.2019 43.808 34.0559 44.667 34.0559 45.851C34.0559 47.035 35.2029 47.894 36.7799 47.894C38.3569 47.894 39.5039 47.035 39.5039 45.851C39.5039 44.667 38.3579 43.808 36.7799 43.808Z" fill="#5C6BC0"/>
<path d="M28.6071 34.273C27.0291 34.273 25.8831 35.132 25.8831 36.316C25.8831 37.5 27.0301 38.359 28.6071 38.359C30.1841 38.359 31.3311 37.5 31.3311 36.316C31.3311 35.132 30.1851 34.273 28.6071 34.273Z" fill="#5C6BC0"/>
<path d="M36.7799 34.273C35.2019 34.273 34.0559 35.132 34.0559 36.316C34.0559 37.5 35.2029 38.359 36.7799 38.359C38.3569 38.359 39.5039 37.5 39.5039 36.316C39.5039 35.132 38.3579 34.273 36.7799 34.273Z" fill="#5C6BC0"/>
<path d="M43.5909 39.04C42.0129 39.04 40.8669 39.899 40.8669 41.083C40.8669 42.267 42.0139 43.126 43.5909 43.126C45.1679 43.126 46.3159 42.267 46.3159 41.083C46.3159 39.899 45.1669 39.04 43.5909 39.04Z" fill="#5C6BC0"/>
</g>
<defs>
<clipPath id="clip0">
<rect width="65.388" height="59.939" fill="white"/>
</clipPath>
</defs>
</svg>
