<svg width="64" height="64" viewBox="0 0 64 64" fill="none" xmlns="http://www.w3.org/2000/svg">
<g clip-path="url(#clip0)">
<path d="M31.715 0C25.4424 0 19.3106 1.86005 14.0951 5.34494C8.8796 8.82983 4.81461 13.783 2.41418 19.5782C0.0137417 25.3734 -0.614321 31.7502 0.609409 37.9023C1.83314 44.0544 4.8537 49.7055 9.28912 54.1409C13.7245 58.5763 19.3756 61.5969 25.5277 62.8206C31.6798 64.0443 38.0567 63.4163 43.8518 61.0158C49.647 58.6154 54.6002 54.5504 58.0851 49.3349C61.57 44.1194 63.43 37.9876 63.43 31.715C63.4205 23.3066 60.076 15.2453 54.1304 9.29963C48.1847 3.35398 40.1234 0.00952826 31.715 0V0ZM33.037 60.72V56.82C33.0275 56.4758 32.8842 56.1489 32.6374 55.9088C32.3906 55.6687 32.0598 55.5344 31.7155 55.5344C31.3712 55.5344 31.0405 55.6687 30.7937 55.9088C30.5469 56.1489 30.4035 56.4758 30.394 56.82V60.72C23.16 60.3844 16.312 57.3601 11.1912 52.2395C6.07039 47.1189 3.04586 40.271 2.71001 33.037H6.61001C6.78662 33.0419 6.9624 33.0113 7.12698 32.947C7.29156 32.8828 7.44159 32.7863 7.56822 32.6631C7.69485 32.5399 7.7955 32.3925 7.86423 32.2298C7.93296 32.067 7.96837 31.8922 7.96837 31.7155C7.96837 31.5388 7.93296 31.364 7.86423 31.2012C7.7955 31.0385 7.69485 30.8911 7.56822 30.7679C7.44159 30.6447 7.29156 30.5482 7.12698 30.484C6.9624 30.4197 6.78662 30.3891 6.61001 30.394H2.71001C3.04562 23.1599 6.07004 16.3117 11.1909 11.1908C16.3117 6.07003 23.1599 3.0456 30.394 2.71V6.61C30.3892 6.7866 30.4197 6.96238 30.484 7.12696C30.5482 7.29154 30.6448 7.44158 30.768 7.56821C30.8911 7.69484 31.0385 7.79549 31.2012 7.86422C31.364 7.93295 31.5388 7.96836 31.7155 7.96836C31.8922 7.96836 32.0671 7.93295 32.2298 7.86422C32.3926 7.79549 32.5399 7.69484 32.6631 7.56821C32.7863 7.44158 32.8828 7.29154 32.9471 7.12696C33.0113 6.96238 33.0419 6.7866 33.037 6.61V2.71C40.271 3.04584 47.1189 6.07038 52.2395 11.1912C57.3601 16.312 60.3844 23.16 60.72 30.394H56.82C56.4758 30.4035 56.1489 30.5469 55.9088 30.7936C55.6687 31.0404 55.5344 31.3712 55.5344 31.7155C55.5344 32.0598 55.6687 32.3906 55.9088 32.6374C56.1489 32.8841 56.4758 33.0275 56.82 33.037H60.72C60.3842 40.2708 57.3598 47.1186 52.2392 52.2392C47.1186 57.3598 40.2708 60.3842 33.037 60.72V60.72Z" fill="#5C6BC0"/>
<path d="M34.227 32.359C34.2981 32.1509 34.3418 31.9344 34.357 31.715C34.3444 31.1876 34.1698 30.6768 33.857 30.252L42.164 12.452C42.2373 12.2944 42.2789 12.1239 42.2864 11.9503C42.2938 11.7766 42.267 11.6032 42.2074 11.4399C42.1479 11.2766 42.0567 11.1266 41.9392 10.9986C41.8217 10.8705 41.6801 10.7668 41.5225 10.6935C41.3649 10.6201 41.1944 10.5786 41.0207 10.5711C40.8471 10.5636 40.6737 10.5905 40.5104 10.65C40.3471 10.7096 40.1971 10.8008 40.0691 10.9183C39.941 11.0358 39.8373 11.1774 39.764 11.335L31.464 29.123C30.7912 29.1848 30.1682 29.5037 29.7248 30.0134C29.2814 30.5231 29.0518 31.1843 29.0838 31.8591C29.1157 32.5339 29.4068 33.1704 29.8964 33.6359C30.386 34.1014 31.0364 34.3601 31.712 34.358C31.9314 34.3428 32.1479 34.2991 32.356 34.228L42.671 44.543C42.9188 44.7908 43.255 44.9301 43.6055 44.9301C43.956 44.9301 44.2921 44.7908 44.54 44.543C44.7878 44.2951 44.9271 43.959 44.9271 43.6085C44.9271 43.258 44.7878 42.9218 44.54 42.674L34.227 32.359Z" fill="#5C6BC0"/>
</g>
<defs>
<clipPath id="clip0">
<rect width="63.43" height="63.43" fill="white"/>
</clipPath>
</defs>
</svg>
